<svg id="Layer_1" data-name="Layer 1" xmlns="http://www.w3.org/2000/svg" viewBox="0 0 66.83 35"><defs><style>.cls-1,.cls-2,.cls-6{fill:#bdccd4;}.cls-2{font-size:10px;}.cls-2,.cls-6{font-family:GillSansMT-Condensed, Gill Sans MT Condensed;}.cls-3{letter-spacing:0.02em;}.cls-4{letter-spacing:0.02em;}.cls-5{letter-spacing:-0.1em;}.cls-6{font-size:12px;}</style></defs><title>svglogo55</title><path class="cls-1" d="M32.17,4.62a1.34,1.34,0,0,1-1.43,1.14,1.26,1.26,0,0,1-1.43-1.07,1.33,1.33,0,0,1,1.43-1.14A1.27,1.27,0,0,1,32.17,4.62Z"/><path class="cls-1" d="M43.34,24.36a5.65,5.65,0,0,0-1-2.28,15,15,0,0,0-4.14-3.75,32,32,0,0,0-2.92-1.68l-.15.07A30.72,30.72,0,0,1,38,18.44,14.33,14.33,0,0,1,42,22.19a5.33,5.33,0,0,1,.87,2.19,3.34,3.34,0,0,1-.6,2.18c-.94,1.36-3,2.25-5.09,2.71a29.57,29.57,0,0,1-6.71.54A52.85,52.85,0,0,1,17.23,27.7a41.38,41.38,0,0,1-11.3-5.05A14.79,14.79,0,0,1,2,19a5,5,0,0,1-.84-2.12,3.34,3.34,0,0,1,0-1.07,3.3,3.3,0,0,1,.48-1c.82-1.33,2.79-2.21,4.88-2.69a28.64,28.64,0,0,1,6.66-.68c1.5,0,3,.1,4.49.25a.8.8,0,0,1,.05-.25c-1.49-.2-3-.34-4.53-.4a29.39,29.39,0,0,0-7,.5l-.85.19L4.58,12A11.52,11.52,0,0,0,3,12.59a6.12,6.12,0,0,0-2.36,1.9,3.89,3.89,0,0,0-.57,1.2,3.84,3.84,0,0,0,0,1.25A5.52,5.52,0,0,0,1,19.31a15.61,15.61,0,0,0,4.18,3.86,43.05,43.05,0,0,0,11.73,5.08A54.21,54.21,0,0,0,30.45,30.3a30.45,30.45,0,0,0,6.93-.62c2.2-.49,4.39-1.46,5.39-3A3.55,3.55,0,0,0,43.34,24.36Z"/><path class="cls-1" d="M28.77,29.94a15.45,15.45,0,0,1-1.25,1.59,10.45,10.45,0,0,1-2.21,1.88,5.78,5.78,0,0,1-3,.94,5.1,5.1,0,0,1-2.93-.94,8.5,8.5,0,0,1-2-2,14.88,14.88,0,0,1-2.16-4.57,27.34,27.34,0,0,1-1-9.6A29,29,0,0,1,16.5,7.75a18,18,0,0,1,2.76-4.47,10.61,10.61,0,0,1,2.2-1.92,6.1,6.1,0,0,1,3.15-1,5.23,5.23,0,0,1,3.15,1,8.1,8.1,0,0,1,1.15.94,12.54,12.54,0,0,1,.9,1.06,15.77,15.77,0,0,1,2.27,4.6c0,.12.05.23.08.35l.22,0c0-.13-.05-.26-.09-.39a15.57,15.57,0,0,0-2.15-4.68,12.4,12.4,0,0,0-.88-1.09,8.19,8.19,0,0,0-1.17-1A5.76,5.76,0,0,0,24.61,0a6.83,6.83,0,0,0-3.53,1.11,11.18,11.18,0,0,0-2.33,2,18.57,18.57,0,0,0-2.89,4.54,29.47,29.47,0,0,0-2.46,9.62A27.61,27.61,0,0,0,14.22,27a15.34,15.34,0,0,0,2.23,4.72,9.17,9.17,0,0,0,2.13,2.13A6.43,6.43,0,0,0,22.3,35,6.94,6.94,0,0,0,26,33.83a10.77,10.77,0,0,0,2.29-2A14.42,14.42,0,0,0,29.56,30Z"/><ellipse class="cls-1" cx="21.76" cy="21.77" rx="5.05" ry="4.87"/><ellipse class="cls-1" cx="3.08" cy="12.74" rx="1.87" ry="1.55"/><text class="cls-2" transform="translate(19.25 15.01) scale(0.83 1)">Suppo<tspan class="cls-3" x="16.87" y="0">r</tspan><tspan x="19.62" y="0">ting </tspan><tspan class="cls-4" x="33.88" y="0">S</tspan><tspan x="36.84" y="0">.T.E.M</tspan><tspan class="cls-5" x="53.49" y="0">.</tspan><tspan x="54.26" y="0"> </tspan></text><text class="cls-6" transform="translate(44 25.32) scale(0.76 1)">&amp; Space</text></svg>