<svg id="Layer_1" data-name="Layer 1" xmlns="http://www.w3.org/2000/svg" viewBox="0 0 122.4 40"><defs><style>.cls-1{font-size:9.22px;}.cls-1,.cls-5,.cls-8{fill:#dde1e8;}.cls-1,.cls-5{font-family:GillSansMT-Condensed, Gill Sans MT Condensed;}.cls-2{letter-spacing:0.02em;}.cls-3{letter-spacing:0.02em;}.cls-4{letter-spacing:-0.1em;}.cls-5{font-size:12.15px;}.cls-6{font-size:10.63px;}.cls-7{font-size:14.18px;}</style></defs><title>svglogo6</title><text class="cls-1" transform="translate(27.55 16.86) scale(1.79 1)">Suppo<tspan class="cls-2" x="15.56" y="0">r</tspan><tspan x="18.09" y="0">ting </tspan><tspan class="cls-3" x="31.24" y="0">S</tspan><tspan x="33.97" y="0">.T.E.M</tspan><tspan class="cls-4" x="49.32" y="0">.</tspan><tspan x="50.03" y="0"> </tspan></text><text class="cls-5" transform="translate(63.32 30.23) scale(1.79 1)">&amp;<tspan class="cls-6" x="5.07" y="0"> </tspan><tspan class="cls-7" x="8.61" y="0">Space</tspan></text><path class="cls-8" d="M46.68,5.28c0,.7-.83,1.28-1.85,1.3S43,6.05,43,5.35s.82-1.28,1.84-1.3S46.68,4.58,46.68,5.28Z"/><path class="cls-8" d="M61.08,27.68A6.09,6.09,0,0,0,59.7,25a20.21,20.21,0,0,0-5.83-4.39c-1.3-.7-2.68-1.35-4.12-2l-.22.08c1.44.63,2.82,1.29,4.1,2a19.1,19.1,0,0,1,5.56,4.38,5.66,5.66,0,0,1,1.23,2.56,3.43,3.43,0,0,1-.84,2.55c-1.32,1.59-4.18,2.63-7.17,3.16a50.08,50.08,0,0,1-9.46.63,88.71,88.71,0,0,1-18.65-2.47,64.82,64.82,0,0,1-15.93-5.9A19.88,19.88,0,0,1,2.8,21.43,5.26,5.26,0,0,1,1.62,19a3.25,3.25,0,0,1,.05-1.25,3.61,3.61,0,0,1,.68-1.18C3.51,15,6.28,13.94,9.22,13.38a48.42,48.42,0,0,1,9.39-.8c2.11,0,4.23.12,6.33.29a.79.79,0,0,1,.08-.29c-2.1-.23-4.23-.4-6.38-.47a49.81,49.81,0,0,0-9.83.58l-1.2.22-1.15.3a18.35,18.35,0,0,0-2.2.73A8.52,8.52,0,0,0,.92,16.16a4.24,4.24,0,0,0-.8,1.41A3.74,3.74,0,0,0,.06,19a5.86,5.86,0,0,0,1.32,2.77A21,21,0,0,0,7.26,26.3,67.73,67.73,0,0,0,23.8,32.23a91.1,91.1,0,0,0,19.11,2.4,51.55,51.55,0,0,0,9.77-.72c3.11-.57,6.19-1.7,7.6-3.46A3.6,3.6,0,0,0,61.08,27.68Z"/><path class="cls-8" d="M42.28,34.21A18.17,18.17,0,0,1,40.67,36a13.2,13.2,0,0,1-2.85,2.15,8.15,8.15,0,0,1-3.9,1.07,7.17,7.17,0,0,1-3.78-1.07,10.43,10.43,0,0,1-2.53-2.24,16.22,16.22,0,0,1-2.79-5.22,27.85,27.85,0,0,1-1.3-11A30,30,0,0,1,26.45,8.85,20.35,20.35,0,0,1,30,3.74a13.34,13.34,0,0,1,2.84-2.19A8.57,8.57,0,0,1,36.93.38,7.36,7.36,0,0,1,41,1.51a10.3,10.3,0,0,1,1.48,1.07,14.94,14.94,0,0,1,1.16,1.21,17.28,17.28,0,0,1,2.92,5.26c0,.13.07.27.11.4l.28,0c0-.15-.07-.3-.12-.45a16.92,16.92,0,0,0-2.77-5.34,14.65,14.65,0,0,0-1.14-1.25A10.35,10.35,0,0,0,41.41,1.3,8.09,8.09,0,0,0,36.91,0a9.62,9.62,0,0,0-4.56,1.26,14.12,14.12,0,0,0-3,2.27,21.08,21.08,0,0,0-3.73,5.19,30.63,30.63,0,0,0-3.17,11,28.09,28.09,0,0,0,1.07,11.14,16.72,16.72,0,0,0,2.88,5.39,11.26,11.26,0,0,0,2.75,2.43A9.05,9.05,0,0,0,33.94,40a9.77,9.77,0,0,0,4.74-1.33,13.49,13.49,0,0,0,3-2.33,16.63,16.63,0,0,0,1.68-2.11Z"/><ellipse class="cls-8" cx="31.36" cy="24.3" rx="6.63" ry="5.57"/><ellipse class="cls-8" cx="7.84" cy="13.42" rx="2.41" ry="1.77"/></svg>