<svg id="Layer_1" data-name="Layer 1" xmlns="http://www.w3.org/2000/svg" viewBox="0 0 77.01 22.5"><defs><style>.cls-1{font-size:5.19px;}.cls-1,.cls-5,.cls-8{fill:#dde1e8;}.cls-1,.cls-5{font-family:GillSansMT-Condensed, Gill Sans MT Condensed;}.cls-2{letter-spacing:0.02em;}.cls-3{letter-spacing:0.02em;}.cls-4{letter-spacing:-0.1em;}.cls-5{font-size:6.84px;}.cls-6{font-size:5.98px;}.cls-7{font-size:7.97px;}</style></defs><title>svglogo6</title><text class="cls-1" transform="translate(17.33 9.49) scale(2 1)">Suppo<tspan class="cls-2" x="8.75" y="0">r</tspan><tspan x="10.18" y="0">ting </tspan><tspan class="cls-3" x="17.57" y="0">S</tspan><tspan x="19.11" y="0">.T.E.M</tspan><tspan class="cls-4" x="27.74" y="0">.</tspan><tspan x="28.14" y="0"> </tspan></text><text class="cls-5" transform="translate(39.84 17) scale(2 1)">&amp;<tspan class="cls-6" x="2.85" y="0"> </tspan><tspan class="cls-7" x="4.84" y="0">Space</tspan></text><path class="cls-8" d="M29.37,3c0,.39-.52.72-1.16.73S27,3.4,27,3s.52-.72,1.16-.73S29.37,2.58,29.37,3Z"/><path class="cls-8" d="M38.43,15.57a3.31,3.31,0,0,0-.87-1.5,12.68,12.68,0,0,0-3.67-2.47c-.82-.4-1.69-.76-2.59-1.1l-.14,0c.9.35,1.77.73,2.58,1.13a11.9,11.9,0,0,1,3.5,2.47A3.05,3.05,0,0,1,38,15.59,1.8,1.8,0,0,1,37.48,17c-.83.9-2.63,1.48-4.51,1.78a35.18,35.18,0,0,1-6,.36,62.06,62.06,0,0,1-11.73-1.39,43.92,43.92,0,0,1-10-3.32,12.45,12.45,0,0,1-3.5-2.39A2.84,2.84,0,0,1,1,10.66a1.64,1.64,0,0,1,0-.71,2,2,0,0,1,.43-.66C2.21,8.42,4,7.84,5.8,7.53a34,34,0,0,1,5.91-.45c1.33,0,2.66.07,4,.16a.41.41,0,0,1,0-.17c-1.32-.13-2.66-.22-4-.26a35,35,0,0,0-6.18.33l-.75.12-.73.17a12.53,12.53,0,0,0-1.39.41A5.43,5.43,0,0,0,.58,9.09a2.33,2.33,0,0,0-.5.79,1.89,1.89,0,0,0,0,.82,3.16,3.16,0,0,0,.83,1.56,13.13,13.13,0,0,0,3.7,2.53A46,46,0,0,0,15,18.13a63.78,63.78,0,0,0,12,1.35,36.2,36.2,0,0,0,6.15-.41c2-.32,3.89-1,4.78-1.94A1.88,1.88,0,0,0,38.43,15.57Z"/><path class="cls-8" d="M26.6,19.25a10.69,10.69,0,0,1-1,1,8.29,8.29,0,0,1-1.79,1.21,5.6,5.6,0,0,1-2.45.6,4.91,4.91,0,0,1-2.38-.6,6.38,6.38,0,0,1-1.59-1.26,8.85,8.85,0,0,1-1.76-2.93,14.11,14.11,0,0,1-.82-6.17A15.51,15.51,0,0,1,16.64,5a11.52,11.52,0,0,1,2.24-2.87A8.35,8.35,0,0,1,20.68.87,5.87,5.87,0,0,1,23.23.21a5,5,0,0,1,2.56.64,6.51,6.51,0,0,1,.93.6,8.91,8.91,0,0,1,.73.68,9.47,9.47,0,0,1,1.84,3c0,.07,0,.15.07.22h.18c0-.08,0-.17-.07-.25a9.2,9.2,0,0,0-1.74-3,8.66,8.66,0,0,0-.72-.7,6.5,6.5,0,0,0-.95-.64A5.53,5.53,0,0,0,23.22,0a6.6,6.6,0,0,0-2.87.71A8.86,8.86,0,0,0,18.47,2,12,12,0,0,0,16.12,4.9a15.88,15.88,0,0,0-2,6.19,14.21,14.21,0,0,0,.67,6.27,9.13,9.13,0,0,0,1.81,3,6.89,6.89,0,0,0,1.73,1.37,6.21,6.21,0,0,0,3,.74,6.7,6.7,0,0,0,3-.75,8.41,8.41,0,0,0,1.86-1.31,9.61,9.61,0,0,0,1.06-1.19Z"/><ellipse class="cls-8" cx="19.73" cy="13.67" rx="4.17" ry="3.13"/><ellipse class="cls-8" cx="4.93" cy="7.55" rx="1.52" ry="1"/></svg>