<svg id="Layer_1" data-name="Layer 1" xmlns="http://www.w3.org/2000/svg" viewBox="0 0 47.35 35"><defs><style>.cls-1{fill:#bdccd4;}</style></defs><title>svglogo5</title><path class="cls-1" d="M36.17,4.62a1.34,1.34,0,0,1-1.43,1.14,1.26,1.26,0,0,1-1.43-1.07,1.33,1.33,0,0,1,1.43-1.14A1.27,1.27,0,0,1,36.17,4.62Z"/><path class="cls-1" d="M47.34,24.22a5.59,5.59,0,0,0-1.08-2.33,16,16,0,0,0-4.52-3.84,35.67,35.67,0,0,0-3.19-1.72l-.17.07a34.13,34.13,0,0,1,3.18,1.76A15.26,15.26,0,0,1,45.87,22a5.25,5.25,0,0,1,1,2.24,3.26,3.26,0,0,1-.65,2.23c-1,1.39-3.24,2.3-5.56,2.77a34.45,34.45,0,0,1-7.33.55,61.37,61.37,0,0,1-14.45-2.16A46.78,46.78,0,0,1,6.48,22.47a15.8,15.8,0,0,1-4.31-3.72,4.88,4.88,0,0,1-.92-2.16,3.2,3.2,0,0,1,0-1.1,3.28,3.28,0,0,1,.53-1c.9-1.36,3-2.26,5.33-2.75a33.35,33.35,0,0,1,7.28-.7c1.64,0,3.28.1,4.91.25a.77.77,0,0,1,.06-.26c-1.63-.2-3.28-.35-4.95-.41a34.26,34.26,0,0,0-7.62.51l-.93.19L5,11.56a13.11,13.11,0,0,0-1.71.63A6.62,6.62,0,0,0,.72,14.14,3.86,3.86,0,0,0,.1,15.37,3.68,3.68,0,0,0,0,16.65a5.44,5.44,0,0,0,1,2.42A16.67,16.67,0,0,0,5.63,23,48.75,48.75,0,0,0,18.44,28.2a63,63,0,0,0,14.81,2.1,35.48,35.48,0,0,0,7.57-.63c2.41-.5,4.79-1.49,5.89-3A3.45,3.45,0,0,0,47.34,24.22Z"/><path class="cls-1" d="M32.77,29.94a15.45,15.45,0,0,1-1.25,1.59,10.45,10.45,0,0,1-2.21,1.88,5.78,5.78,0,0,1-3,.94,5.1,5.1,0,0,1-2.93-.94,8.5,8.5,0,0,1-2-2,14.88,14.88,0,0,1-2.16-4.57,27.34,27.34,0,0,1-1-9.6A29,29,0,0,1,20.5,7.75a18,18,0,0,1,2.76-4.47,10.61,10.61,0,0,1,2.2-1.92,6.1,6.1,0,0,1,3.15-1,5.23,5.23,0,0,1,3.15,1,8.1,8.1,0,0,1,1.15.94,12.54,12.54,0,0,1,.9,1.06,15.77,15.77,0,0,1,2.27,4.6c0,.12.05.23.08.35l.22,0c0-.13-.05-.26-.09-.39a15.57,15.57,0,0,0-2.15-4.68,12.4,12.4,0,0,0-.88-1.09,8.19,8.19,0,0,0-1.17-1A5.76,5.76,0,0,0,28.61,0a6.83,6.83,0,0,0-3.53,1.11,11.18,11.18,0,0,0-2.33,2,18.57,18.57,0,0,0-2.89,4.54,29.47,29.47,0,0,0-2.46,9.62A27.61,27.61,0,0,0,18.22,27a15.34,15.34,0,0,0,2.23,4.72,9.17,9.17,0,0,0,2.13,2.13A6.43,6.43,0,0,0,26.3,35,6.94,6.94,0,0,0,30,33.83a10.77,10.77,0,0,0,2.29-2A14.42,14.42,0,0,0,33.56,30Z"/><ellipse class="cls-1" cx="25.76" cy="17.77" rx="5.05" ry="4.87"/><ellipse class="cls-1" cx="6.08" cy="11.74" rx="1.87" ry="1.55"/></svg>