<svg id="Layer_1" data-name="Layer 1" xmlns="http://www.w3.org/2000/svg" viewBox="0 0 64.73 35"><defs><style>.cls-1{fill:#bdccd4;}</style></defs><title>svglogo5678</title><path class="cls-1" d="M32.17,4.62a1.34,1.34,0,0,1-1.43,1.14,1.26,1.26,0,0,1-1.43-1.07,1.33,1.33,0,0,1,1.43-1.14A1.27,1.27,0,0,1,32.17,4.62Z"/><path class="cls-1" d="M43.34,24.36a5.65,5.65,0,0,0-1-2.28,15,15,0,0,0-4.14-3.75,32,32,0,0,0-2.92-1.68l-.15.07A30.72,30.72,0,0,1,38,18.44,14.33,14.33,0,0,1,42,22.19a5.33,5.33,0,0,1,.87,2.19,3.34,3.34,0,0,1-.6,2.18c-.94,1.36-3,2.25-5.09,2.71a29.57,29.57,0,0,1-6.71.54A52.85,52.85,0,0,1,17.23,27.7a41.38,41.38,0,0,1-11.3-5.05A14.79,14.79,0,0,1,2,19a5,5,0,0,1-.84-2.12,3.34,3.34,0,0,1,0-1.07,3.3,3.3,0,0,1,.48-1c.82-1.33,2.79-2.21,4.88-2.69a28.64,28.64,0,0,1,6.66-.68c1.5,0,3,.1,4.49.25a.8.8,0,0,1,.05-.25c-1.49-.2-3-.34-4.53-.4a29.39,29.39,0,0,0-7,.5l-.85.19L4.58,12A11.52,11.52,0,0,0,3,12.59a6.12,6.12,0,0,0-2.36,1.9,3.89,3.89,0,0,0-.57,1.2,3.84,3.84,0,0,0,0,1.25A5.52,5.52,0,0,0,1,19.31a15.61,15.61,0,0,0,4.18,3.86,43.05,43.05,0,0,0,11.73,5.08A54.21,54.21,0,0,0,30.45,30.3a30.45,30.45,0,0,0,6.93-.62c2.2-.49,4.39-1.46,5.39-3A3.55,3.55,0,0,0,43.34,24.36Z"/><path class="cls-1" d="M28.77,29.94a15.45,15.45,0,0,1-1.25,1.59,10.45,10.45,0,0,1-2.21,1.88,5.78,5.78,0,0,1-3,.94,5.1,5.1,0,0,1-2.93-.94,8.5,8.5,0,0,1-2-2,14.88,14.88,0,0,1-2.16-4.57,27.34,27.34,0,0,1-1-9.6A29,29,0,0,1,16.5,7.75a18,18,0,0,1,2.76-4.47,10.61,10.61,0,0,1,2.2-1.92,6.1,6.1,0,0,1,3.15-1,5.23,5.23,0,0,1,3.15,1,8.1,8.1,0,0,1,1.15.94,12.54,12.54,0,0,1,.9,1.06,15.77,15.77,0,0,1,2.27,4.6c0,.12.05.23.08.35l.22,0c0-.13-.05-.26-.09-.39a15.57,15.57,0,0,0-2.15-4.68,12.4,12.4,0,0,0-.88-1.09,8.19,8.19,0,0,0-1.17-1A5.76,5.76,0,0,0,24.61,0a6.83,6.83,0,0,0-3.53,1.11,11.18,11.18,0,0,0-2.33,2,18.57,18.57,0,0,0-2.89,4.54,29.47,29.47,0,0,0-2.46,9.62A27.61,27.61,0,0,0,14.22,27a15.34,15.34,0,0,0,2.23,4.72,9.17,9.17,0,0,0,2.13,2.13A6.43,6.43,0,0,0,22.3,35,6.94,6.94,0,0,0,26,33.83a10.77,10.77,0,0,0,2.29-2A14.42,14.42,0,0,0,29.56,30Z"/><ellipse class="cls-1" cx="21.76" cy="21.77" rx="5.05" ry="4.87"/><ellipse class="cls-1" cx="3.08" cy="12.74" rx="1.87" ry="1.55"/><path class="cls-1" d="M19.51,14.84V14a.87.87,0,0,0,.62.37.48.48,0,0,0,.38-.19.69.69,0,0,0,.16-.46,2.19,2.19,0,0,0-.09-.56,10.61,10.61,0,0,0-.48-1.21,9.5,9.5,0,0,1-.51-1.33,3.25,3.25,0,0,1-.12-.8,1.8,1.8,0,0,1,.32-1.1,1,1,0,0,1,.81-.43,1.22,1.22,0,0,1,.59.18v.81A.92.92,0,0,0,20.7,9q-.54,0-.54.63a2.19,2.19,0,0,0,.09.56,10.49,10.49,0,0,0,.48,1.2,9,9,0,0,1,.5,1.33,3.35,3.35,0,0,1,.11.81A1.82,1.82,0,0,1,21,14.67a1,1,0,0,1-.82.43A1.14,1.14,0,0,1,19.51,14.84Z"/><path class="cls-1" d="M24.06,10.58V15h-.65v-.48h0q-.26.55-.65.55a.69.69,0,0,1-.6-.34,1.64,1.64,0,0,1-.23-.93V10.58h.65v3.17q0,.63.35.63a.43.43,0,0,0,.35-.22.75.75,0,0,0,.15-.3V10.58Z"/><path class="cls-1" d="M24.89,17.4V10.58h.65v.32h0a.62.62,0,0,1,.55-.39q.44,0,.75.67a4.07,4.07,0,0,1,.3,1.68,3.87,3.87,0,0,1-.3,1.64q-.3.63-.76.63a.67.67,0,0,1-.55-.39h0V17.4Zm.65-5.76V14c.15.27.3.4.45.4q.51,0,.51-1.54t-.57-1.6a.33.33,0,0,0-.27.17A.59.59,0,0,0,25.54,11.64Z"/><path class="cls-1" d="M27.82,17.4V10.58h.65v.32h0a.62.62,0,0,1,.55-.39q.44,0,.75.67a4.07,4.07,0,0,1,.3,1.68,3.87,3.87,0,0,1-.3,1.64q-.3.63-.76.63a.67.67,0,0,1-.55-.39h0V17.4Zm.65-5.76V14c.15.27.3.4.45.4q.51,0,.51-1.54t-.57-1.6a.33.33,0,0,0-.27.17A.59.59,0,0,0,28.46,11.64Z"/><path class="cls-1" d="M31.76,15.14a.94.94,0,0,1-.84-.62,3.91,3.91,0,0,1-.31-1.71,3.92,3.92,0,0,1,.31-1.71.87.87,0,0,1,1.68,0,3.91,3.91,0,0,1,.31,1.71,3.89,3.89,0,0,1-.31,1.71A.94.94,0,0,1,31.76,15.14Zm0-3.93q-.48,0-.48,1.6t.5,1.59q.48,0,.48-1.59T31.75,11.21Z"/><path class="cls-1" d="M33.61,15V10.58h.65v1.2h0a5.38,5.38,0,0,1,.32-1,.39.39,0,0,1,.36-.24.5.5,0,0,1,.33.13l0,.8a.43.43,0,0,0-.28-.11q-.3,0-.5.66a4.43,4.43,0,0,0-.2,1.26V15Z"/><path class="cls-1" d="M37.26,14.27V15a1.27,1.27,0,0,1-.57.17q-.68,0-.68-1V11.27h-.42V11.2a16.89,16.89,0,0,0,1-1.76h.06v1.14h.6v.68h-.6v2.53a1.37,1.37,0,0,0,.05.48.2.2,0,0,0,.2.12A.76.76,0,0,0,37.26,14.27Z"/><path class="cls-1" d="M38.08,9.14A.33.33,0,0,1,37.82,9a.52.52,0,0,1,0-.64.33.33,0,0,1,.52,0,.52.52,0,0,1,0,.64A.33.33,0,0,1,38.08,9.14ZM37.76,15V10.58h.65V15Z"/><path class="cls-1" d="M39.21,15V10.58h.65v.48h0q.27-.55.68-.55a.66.66,0,0,1,.58.35,1.8,1.8,0,0,1,.22,1V15h-.65V11.84c0-.43-.12-.64-.35-.64a.43.43,0,0,0-.35.24,1.07,1.07,0,0,0-.16.29V15Z"/><path class="cls-1" d="M44.39,11.27h-.48a2.4,2.4,0,0,1,.21,1.07q0,1.44-1,1.64a.7.7,0,0,0-.26.1.27.27,0,0,0-.08.23.35.35,0,0,0,.08.23,1.48,1.48,0,0,0,.6.22,1.12,1.12,0,0,1,.74.49,1.61,1.61,0,0,1,.22.85,1.4,1.4,0,0,1-.35,1,1.19,1.19,0,0,1-.92.38,1.17,1.17,0,0,1-.87-.35,1.2,1.2,0,0,1-.35-.88,1.13,1.13,0,0,1,.63-1.09.71.71,0,0,1-.42-.65.77.77,0,0,1,.51-.71,1.87,1.87,0,0,1-.56-1.52A2.27,2.27,0,0,1,42.35,11a.9.9,0,0,1,.79-.46h1.25Zm-1.3,4.17a.56.56,0,0,0-.44.2.73.73,0,0,0-.17.5.68.68,0,0,0,.18.49.62.62,0,0,0,.47.19.64.64,0,0,0,.48-.2.66.66,0,0,0,.19-.48.67.67,0,0,0-.21-.49A.68.68,0,0,0,43.1,15.43Zm0-4.26c-.14,0-.24.1-.33.29a2.11,2.11,0,0,0-.12.8,2.24,2.24,0,0,0,.12.82q.12.29.33.29t.31-.28a2.11,2.11,0,0,0,.12-.78,2.4,2.4,0,0,0-.12-.83C43.33,11.27,43.23,11.17,43.1,11.17Z"/><path class="cls-1" d="M47.51,14.84V14a.87.87,0,0,0,.62.37.48.48,0,0,0,.38-.19.68.68,0,0,0,.16-.46,2.17,2.17,0,0,0-.09-.56,10.38,10.38,0,0,0-.48-1.21,9.58,9.58,0,0,1-.51-1.33,3.25,3.25,0,0,1-.12-.8,1.8,1.8,0,0,1,.32-1.1,1,1,0,0,1,.81-.43,1.22,1.22,0,0,1,.59.18v.81a.92.92,0,0,0-.5-.21q-.54,0-.54.63a2.19,2.19,0,0,0,.09.56,10.65,10.65,0,0,0,.48,1.2,9,9,0,0,1,.5,1.33,3.38,3.38,0,0,1,.12.81A1.82,1.82,0,0,1,49,14.67a1,1,0,0,1-.82.43A1.14,1.14,0,0,1,47.51,14.84Z"/><path class="cls-1" d="M50,14.55a.58.58,0,0,1,.13-.38.4.4,0,0,1,.32-.16.39.39,0,0,1,.32.16.58.58,0,0,1,.13.38.59.59,0,0,1-.13.39.39.39,0,0,1-.32.16.4.4,0,0,1-.32-.16A.59.59,0,0,1,50,14.55Z"/><path class="cls-1" d="M52.08,15V9.13h-.85v-.8h2.4v.8h-.85V15Z"/><path class="cls-1" d="M54,14.55a.58.58,0,0,1,.13-.38.4.4,0,0,1,.32-.16.39.39,0,0,1,.32.16.58.58,0,0,1,.13.38.59.59,0,0,1-.13.39.39.39,0,0,1-.32.16.4.4,0,0,1-.32-.16A.59.59,0,0,1,54,14.55Z"/><path class="cls-1" d="M55.67,15V8.33h2v.8H56.38v2h1.15v.8H56.38v2.28h1.32V15Z"/><path class="cls-1" d="M58.48,14.55a.58.58,0,0,1,.13-.38.4.4,0,0,1,.32-.16.39.39,0,0,1,.32.16.58.58,0,0,1,.13.38.59.59,0,0,1-.13.39.39.39,0,0,1-.32.16.4.4,0,0,1-.32-.16A.59.59,0,0,1,58.48,14.55Z"/><path class="cls-1" d="M61.55,10.79l.82-2.45H63V15h-.69l0-4.83,0,0-.69,2.2h-.13l-.69-2.2,0,0,0,4.83h-.69V8.33h.61Z"/><path class="cls-1" d="M63.73,14.55a.58.58,0,0,1,.13-.38.4.4,0,0,1,.32-.16.39.39,0,0,1,.32.16.58.58,0,0,1,.13.38.59.59,0,0,1-.13.39.39.39,0,0,1-.32.16.4.4,0,0,1-.32-.16A.59.59,0,0,1,63.73,14.55Z"/><path class="cls-1" d="M46.82,25.42l-.23-.7a1.27,1.27,0,0,1-1,.7,1.13,1.13,0,0,1-1-.68,3.26,3.26,0,0,1-.4-1.67,3.69,3.69,0,0,1,.91-2.48,5.28,5.28,0,0,1-.34-1.66,2.15,2.15,0,0,1,.33-1.21,1,1,0,0,1,.79-.5.89.89,0,0,1,.74.43,1.8,1.8,0,0,1,.3,1.06,3.16,3.16,0,0,1-.89,2.05l.59,1.84h0q.15-.76.2-1.31h.69a9.39,9.39,0,0,1-.5,2.46l.58,1.68Zm-.55-1.65-.77-2.26a3.79,3.79,0,0,0-.36.71A2.31,2.31,0,0,0,45,23a2.37,2.37,0,0,0,.19,1q.19.4.46.4T46.27,23.78Zm-.49-3.87a4,4,0,0,0,.4-.6,1.31,1.31,0,0,0,.13-.6,1,1,0,0,0-.11-.48.31.31,0,0,0-.27-.19.33.33,0,0,0-.29.21,1.07,1.07,0,0,0-.12.52A3.22,3.22,0,0,0,45.78,19.91Z"/><path class="cls-1" d="M51.13,25.11V24a.94.94,0,0,0,.68.44.51.51,0,0,0,.42-.23.88.88,0,0,0,.17-.55,2.83,2.83,0,0,0-.1-.67,13.4,13.4,0,0,0-.53-1.45,12.19,12.19,0,0,1-.56-1.6,4.24,4.24,0,0,1-.13-1,2.3,2.3,0,0,1,.35-1.32,1,1,0,0,1,.89-.51,1.27,1.27,0,0,1,.65.21v1a1,1,0,0,0-.55-.25q-.59,0-.59.76a2.84,2.84,0,0,0,.1.68A13.08,13.08,0,0,0,52.48,21,11.23,11.23,0,0,1,53,22.61a4.34,4.34,0,0,1,.13,1,2.32,2.32,0,0,1-.35,1.33,1.05,1.05,0,0,1-.91.51A1.2,1.2,0,0,1,51.13,25.11Z"/><path class="cls-1" d="M53.84,28.18V20h.71v.38h0a.69.69,0,0,1,.61-.47q.49,0,.83.8a5.27,5.27,0,0,1,.34,2,5,5,0,0,1-.33,2q-.33.76-.83.76c-.23,0-.44-.16-.61-.47h0v3.19Zm.71-6.91v2.82q.24.48.49.48.57,0,.57-1.85T55,20.81a.36.36,0,0,0-.3.2A.72.72,0,0,0,54.55,21.28Z"/><path class="cls-1" d="M59.55,24.33V25q-.33.39-.55.39-.4,0-.52-.67-.39.7-.77.7a.67.67,0,0,1-.55-.4,1.83,1.83,0,0,1-.24-.95,1.71,1.71,0,0,1,.33-1.07,6.52,6.52,0,0,1,1.2-1.1v-.51q0-.69-.42-.69t-1,.87V20.54a1.46,1.46,0,0,1,1.08-.69,1,1,0,0,1,.76.39,1.61,1.61,0,0,1,.31,1v3q0,.31.11.31S59.41,24.51,59.55,24.33ZM58.45,24V22.59A1.83,1.83,0,0,0,57.61,24a.85.85,0,0,0,.1.43.29.29,0,0,0,.25.17c.12,0,.24-.09.34-.27A1,1,0,0,0,58.45,24Z"/><path class="cls-1" d="M62.13,24.28v.9a1.08,1.08,0,0,1-.7.29,1.2,1.2,0,0,1-1-.78,4.19,4.19,0,0,1-.41-2,4.49,4.49,0,0,1,.41-2.05,1.2,1.2,0,0,1,1-.8,1.32,1.32,0,0,1,.64.19v1a.93.93,0,0,0-.53-.26q-.38,0-.6.52a3.61,3.61,0,0,0-.22,1.41A3.26,3.26,0,0,0,61,24.06a.74.74,0,0,0,.65.51A.77.77,0,0,0,62.13,24.28Z"/><path class="cls-1" d="M64.65,24.07V25a1.07,1.07,0,0,1-.83.47,1,1,0,0,1-1-.73,5.09,5.09,0,0,1-.34-2.09,5.7,5.7,0,0,1,.3-2.06q.3-.74.83-.74,1.1,0,1.08,3H63.24q0,1.73.72,1.73Q64.35,24.6,64.65,24.07Zm-1.42-1.9H64q0-1.49-.41-1.49T63.23,22.17Z"/></svg>